HIERARCHY
ROOT hips
{
  OFFSET 0 10.074487846421558 1.314567655973056
  CHANNELS 6 Xposition Yposition Zposition Yrotation Xrotation Zrotation
  JOINT spine
  {
    OFFSET -7.042773748992335e-31 0.5690686926897363 0
    CHANNELS 3 Yrotation Xrotation Zrotation
    JOINT chest
    {
      OFFSET 0 1.2435964857087873 0
      CHANNELS 3 Yrotation Xrotation Zrotation
      JOINT upperChest
      {
        OFFSET 0 1.194994586872362 0
        CHANNELS 3 Yrotation Xrotation Zrotation
        JOINT neck
        {
          OFFSET 0 1.515103653293861 0
          CHANNELS 3 Yrotation Xrotation Zrotation
          JOINT head
          {
            OFFSET 0 0.8111851616465653 0
            CHANNELS 3 Yrotation Xrotation Zrotation
            JOINT leftEye
            {
              OFFSET 0.27141371691966987 0.7490044407698551 0.18219031050045686
              CHANNELS 3 Yrotation Xrotation Zrotation
              End Site
              {
                OFFSET 0.27141371691966987 0.7490044407698551 0.18219031050045686
              }
            }
            JOINT rightEye
            {
              OFFSET -0.2714136877644943 0.7490044019380786 0.18219040411850668
              CHANNELS 3 Yrotation Xrotation Zrotation
              End Site
              {
                OFFSET -0.2714136877644943 0.7490044019380786 0.18219040411850668
              }
            }
          }
        }
        JOINT leftShoulder
        {
          OFFSET 0.4137993136083964 1.1593397335613034 0
          CHANNELS 3 Yrotation Xrotation Zrotation
          JOINT leftUpperArm
          {
            OFFSET 1.0096991868951026 0 0
            CHANNELS 3 Yrotation Xrotation Zrotation
            JOINT leftLowerArm
            {
              OFFSET 2.418380967671622 0 0
              CHANNELS 3 Yrotation Xrotation Zrotation
              JOINT leftHand
              {
                OFFSET 2.361538296260114 0 0
                CHANNELS 3 Yrotation Xrotation Zrotation
                JOINT leftIndexProximal
                {
                  OFFSET 0.7243699271447109 0.08118285989887508 0.2022042461579805
                  CHANNELS 3 Yrotation Xrotation Zrotation
                  JOINT leftIndexIntermediate
                  {
                    OFFSET 0.36553107045252053 -0.010567764853200323 -0.014102670024158437
                    CHANNELS 3 Yrotation Xrotation Zrotation
                    JOINT leftIndexDistal
                    {
                      OFFSET 0.22505120770060527 -0.007821041598631284 -0.007511611613336286
                      CHANNELS 3 Yrotation Xrotation Zrotation
                      End Site
                      {
                        OFFSET 0.22505120770060527 -0.007821041598631284 -0.007511611613336286
                      }
                    }
                  }
                }
                JOINT leftLittleProximal
                {
                  OFFSET 0.6721063881632002 0.08118279568569564 -0.3209324945517917
                  CHANNELS 3 Yrotation Xrotation Zrotation
                  JOINT leftLittleIntermediate
                  {
                    OFFSET 0.34587329423120616 5.3042709780015684e-8 -5.929537746918179e-8
                    CHANNELS 3 Yrotation Xrotation Zrotation
                    JOINT leftLittleDistal
                    {
                      OFFSET 0.1992782500022232 0.0030983716482184676 0.0038310952896712935
                      CHANNELS 3 Yrotation Xrotation Zrotation
                      End Site
                      {
                        OFFSET 0.1992782500022232 0.0030983716482184676 0.0038310952896712935
                      }
                    }
                  }
                }
                JOINT leftMiddleProximal
                {
                  OFFSET 0.7301229696860206 0.08118412848995638 0.022516891543707507
                  CHANNELS 3 Yrotation Xrotation Zrotation
                  JOINT leftMiddleIntermediate
                  {
                    OFFSET 0.4076277831942017 -0.000001240188283180288 -1.6203245635504349e-7
                    CHANNELS 3 Yrotation Xrotation Zrotation
                    JOINT leftMiddleDistal
                    {
                      OFFSET 0.2514739255593972 0.0000013850839168938478 -1.8644847207816007e-8
                      CHANNELS 3 Yrotation Xrotation Zrotation
                      End Site
                      {
                        OFFSET 0.2514739255593972 0.0000013850839168938478 -1.8644847207816007e-8
                      }
                    }
                  }
                }
                JOINT leftRingProximal
                {
                  OFFSET 0.7218060861525873 0.08118280646416753 -0.1494689818508163
                  CHANNELS 3 Yrotation Xrotation Zrotation
                  JOINT leftRingIntermediate
                  {
                    OFFSET 0.3781267508900358 0.000001373626195677602 -1.4143108284514483e-7
                    CHANNELS 3 Yrotation Xrotation Zrotation
                    JOINT leftRingDistal
                    {
                      OFFSET 0.21814333268795483 -0.0027137626495670197 -0.004991775417842292
                      CHANNELS 3 Yrotation Xrotation Zrotation
                      End Site
                      {
                        OFFSET 0.21814333268795483 -0.0027137626495670197 -0.004991775417842292
                      }
                    }
                  }
                }
                JOINT leftThumbProximal
                {
                  OFFSET 0.10743676110519984 -0.16423092885053192 -0.07708859146227388
                  CHANNELS 3 Yrotation Xrotation Zrotation
                  JOINT leftThumbIntermediate
                  {
                    OFFSET 0.40350402100066307 -0.01735099334274981 0.315629965828783
                    CHANNELS 3 Yrotation Xrotation Zrotation
                    JOINT leftThumbDistal
                    {
                      OFFSET 0.2320014489535681 -0.01842351809041043 0.21271298411519196
                      CHANNELS 3 Yrotation Xrotation Zrotation
                      End Site
                      {
                        OFFSET 0.2320014489535681 -0.01842351809041043 0.21271298411519196
                      }
                    }
                  }
                }
              }
            }
          }
        }
        JOINT rightShoulder
        {
          OFFSET -0.41379931360839656 1.1593397335613034 0
          CHANNELS 3 Yrotation Xrotation Zrotation
          JOINT rightUpperArm
          {
            OFFSET -1.0096991868951024 0 0
            CHANNELS 3 Yrotation Xrotation Zrotation
            JOINT rightLowerArm
            {
              OFFSET -2.4183809676716232 0 0
              CHANNELS 3 Yrotation Xrotation Zrotation
              JOINT rightHand
              {
                OFFSET -2.3615382962601132 0 0
                CHANNELS 3 Yrotation Xrotation Zrotation
                JOINT rightIndexProximal
                {
                  OFFSET -0.7243699271447109 0.08118285989887508 0.2022042461579805
                  CHANNELS 3 Yrotation Xrotation Zrotation
                  JOINT rightIndexIntermediate
                  {
                    OFFSET -0.36553107045252053 -0.010567764853200323 -0.014102670024158437
                    CHANNELS 3 Yrotation Xrotation Zrotation
                    JOINT rightIndexDistal
                    {
                      OFFSET -0.22505120770060527 -0.007821041598631284 -0.007511611613336286
                      CHANNELS 3 Yrotation Xrotation Zrotation
                      End Site
                      {
                        OFFSET -0.22505120770060527 -0.007821041598631284 -0.007511611613336286
                      }
                    }
                  }
                }
                JOINT rightLittleProximal
                {
                  OFFSET -0.6721063881632002 0.08118279568569564 -0.3209324945517917
                  CHANNELS 3 Yrotation Xrotation Zrotation
                  JOINT rightLittleIntermediate
                  {
                    OFFSET -0.34587329423120616 5.3042709780015684e-8 -5.929537746918179e-8
                    CHANNELS 3 Yrotation Xrotation Zrotation
                    JOINT rightLittleDistal
                    {
                      OFFSET -0.1992782500022232 0.0030983716482184676 0.0038310952896712935
                      CHANNELS 3 Yrotation Xrotation Zrotation
                      End Site
                      {
                        OFFSET -0.1992782500022232 0.0030983716482184676 0.0038310952896712935
                      }
                    }
                  }
                }
                JOINT rightMiddleProximal
                {
                  OFFSET -0.7301229696860206 0.08118412848995638 0.022516891543707507
                  CHANNELS 3 Yrotation Xrotation Zrotation
                  JOINT rightMiddleIntermediate
                  {
                    OFFSET -0.4076277831942017 -0.000001240188283180288 -1.6203245635504349e-7
                    CHANNELS 3 Yrotation Xrotation Zrotation
                    JOINT rightMiddleDistal
                    {
                      OFFSET -0.2514739255593972 0.0000013850839168938478 -1.8644847207816007e-8
                      CHANNELS 3 Yrotation Xrotation Zrotation
                      End Site
                      {
                        OFFSET -0.2514739255593972 0.0000013850839168938478 -1.8644847207816007e-8
                      }
                    }
                  }
                }
                JOINT rightRingProximal
                {
                  OFFSET -0.7218060861525873 0.08118280646416753 -0.1494689818508163
                  CHANNELS 3 Yrotation Xrotation Zrotation
                  JOINT rightRingIntermediate
                  {
                    OFFSET -0.3781267508900358 0.000001373626195677602 -1.4143108284514483e-7
                    CHANNELS 3 Yrotation Xrotation Zrotation
                    JOINT rightRingDistal
                    {
                      OFFSET -0.21814333268795483 -0.0027137626495670197 -0.004991775417842292
                      CHANNELS 3 Yrotation Xrotation Zrotation
                      End Site
                      {
                        OFFSET -0.21814333268795483 -0.0027137626495670197 -0.004991775417842292
                      }
                    }
                  }
                }
                JOINT rightThumbProximal
                {
                  OFFSET -0.10743676110519984 -0.16423092885053192 -0.07708859146227388
                  CHANNELS 3 Yrotation Xrotation Zrotation
                  JOINT rightThumbIntermediate
                  {
                    OFFSET -0.40350402100066307 -0.01735099334274981 0.315629965828783
                    CHANNELS 3 Yrotation Xrotation Zrotation
                    JOINT rightThumbDistal
                    {
                      OFFSET -0.2320014489535681 -0.01842351809041043 0.21271298411519196
                      CHANNELS 3 Yrotation Xrotation Zrotation
                      End Site
                      {
                        OFFSET -0.2320014489535681 -0.01842351809041043 0.21271298411519196
                      }
                    }
                  }
                }
              }
            }
          }
        }
      }
    }
  }
  JOINT leftUpperLeg
  {
    OFFSET 0.8487163290887698 -0.43932186100277326 0
    CHANNELS 3 Yrotation Xrotation Zrotation
    JOINT leftLowerLeg
    {
      OFFSET 0 -3.882816707004296 0
      CHANNELS 3 Yrotation Xrotation Zrotation
      JOINT leftFoot
      {
        OFFSET 0 -4.570431027442807 0.004629272230691511
        CHANNELS 3 Yrotation Xrotation Zrotation
        JOINT leftToes
        {
          OFFSET 0 -0.698875637876343 1.214565366696912
          CHANNELS 3 Yrotation Xrotation Zrotation
          End Site
          {
            OFFSET 0 -0.698875637876343 1.214565366696912
          }
        }
      }
    }
  }
  JOINT rightUpperLeg
  {
    OFFSET -0.8487163290887698 -0.43932186100277326 0
    CHANNELS 3 Yrotation Xrotation Zrotation
    JOINT rightLowerLeg
    {
      OFFSET 0 -3.882816707004296 0
      CHANNELS 3 Yrotation Xrotation Zrotation
      JOINT rightFoot
      {
        OFFSET 0 -4.570431027442807 0.004629272230691511
        CHANNELS 3 Yrotation Xrotation Zrotation
        JOINT rightToes
        {
          OFFSET 0 -0.698875637876343 1.214565366696912
          CHANNELS 3 Yrotation Xrotation Zrotation
          End Site
          {
            OFFSET 0 -0.698875637876343 1.214565366696912
          }
        }
      }
    }
  }
}
MOTION
Frames: 4
Frame Time: 0.03333333333333333
-0.0025298348627984524 -4.112763565110523 0.26965153217315674 0.17798017089402626 0.14348222734683053 1.0816027999379858 -0.192015266231988 9.674706702304341 -1.7215199391182354 0.3275302873302618 -0.4925303133357454 -0.7218037972012475 0 0 0 -1.389738309276433 -1.5982689778662273 0.8060756766860325 -4.732934014141152 -11.435716193132123 -4.468082463324425 0 0 0 0 0 0 -13.386334125436255 1.798434808424434 -2.473871793042912 -26.68678014055416 0.7157944833070335 -52.92652386639881 -57.5144413575787 -5.994706723683122 4.100631641557276 -0.181513660419185 29.8354041965407 44.328045835438935 2.5866776742953195 -0.5503230996517811 -26.999894161493373 1.8603210426530292 0.3495294147855714 -21.281643889135673 0.867326135262987 0.0739204831810942 -9.743451338401004 10.425547540589225 2.9070005520841904 -13.57698303978672 1.182610051761356 0.13828909342152265 -13.341320577302662 0.9826250413131835 0.09507147439669301 -11.05385825402951 6.966352903760412 1.6833077982740845 -16.3971507604845 1.7049989556469565 0.2918824597566159 -19.429893084683513 1.4410333350554692 0.20676817754393279 -16.330168995547087 9.388106386149037 2.5486377753628875 -14.139842331239798 1.3540464135654335 0.18209192250456357 -15.319219486736642 1.5318328785567716 0.23425989282667914 -17.390286595707458 0.6994764125268028 7.877636045643693 20.62581088240757 20.653546391112013 3.2100825842914227 -23.478763447899123 29.55125162284797 -1.3693767867737054 3.184937003470518 -4.200115649257783 2.9794976884171085 6.806319707536262 38.01381414139624 -4.826957776667214 55.225434001905484 53.43249830396598 -5.736670996659977 -3.6311065153472666 14.132213388811142 42.321468031574945 -28.686844510853618 1.5119986257731004 2.34194999935702 13.592483167816514 -1.7210696870989253 0.39761971926866935 26.016674645321668 -0.6263359973034558 0.05032151856097161 9.18599017893669 -11.696535577492854 -9.925414088050633 9.233472558695171 -0.43792867005546454 0.024515804175279834 6.409035480152928 -0.434394981708514 0.02412689190157931 6.357174379064261 -3.6151526900771427 0.25882756385226074 2.5649427802474833 -1.9028316949667934 0.4922862851436499 29.007764531665895 -0.3672975983991571 0.01723447018374768 5.372199591722982 -7.494496963573425 1.1051689119839558 4.3193744314468825 -0.8377393363901146 0.09048232830876443 12.329288724863822 -0.6889229853862073 0.06096021023570883 10.113326872279004 -2.4284014499104623 -7.807950642366199 -17.11761799094804 -24.81765577143259 4.125821205882242 33.20738559622044 -37.597050296786215 -1.561036806829524 -8.504457398958637 -47.84886156165438 -83.75000305774118 58.994692358512616 41.394881878305995 80.10208689630427 41.122782246537966 -7.134808780305997 4.220577937779715 -6.702453922280565 0.000007547683971066565 -0.10311152621509641 -5.280096177410431e-7 61.80056176000852 -82.68782648885185 -69.49236870969725 -38.777584652565665 80.21967912075408 -40.15317527774828 0.06813160904825447 5.413153270380748 7.094772244087513 0.000008273348752521028 -0.19163724268749507 3.225628491750529e-7
-0.002333718119189143 -4.112901371049244 0.26958176493644714 0.175337223423985 0.1412172255737743 1.0856162291857523 -0.19928704288451826 9.67129864987428 -1.708351770440766 0.3267380922692234 -0.4905929229096789 -0.7218357573045083 0 0 0 -1.3933367059770492 -1.5407999738074254 0.8668263298482113 -4.668741422787021 -11.408899073871392 -4.445764786930039 0 0 0 0 0 0 -13.37067910755459 1.816630094508641 -2.338137752865003 -26.77402006883596 0.6276281759678676 -53.03064673413986 -57.39360831155579 -5.98753083568644 4.086480578204066 -0.22793546620654653 29.776240283595975 44.374070810230364 2.589676993758276 -0.5496932524852779 -27.030715383971486 1.8646121350213205 0.35119329064794547 -21.333005320348544 0.8718542143710315 0.07469591707734467 -9.794830446117182 10.42462850085302 2.902291276274028 -13.542375159305445 1.1887820831877134 0.13976196401894272 -13.41223218674314 0.9870485050646913 0.09592795062584832 -11.104380373866508 6.964737229733878 1.6812286036287807 -16.371482038701085 1.7112367462826912 0.29409381577369065 -19.503962068885784 1.4474170984107324 0.2086251207448038 -16.4043035479047 9.386657216825906 2.544946467508525 -14.109854288283797 1.35868059605643 0.18336050319204164 -15.373104582830234 1.536474988450706 0.2357109733836708 -17.44461143327652 0.6994764125268028 7.877636045643693 20.62581088240757 20.653546391112013 3.2100825842914227 -23.478763447899123 29.55125162284797 -1.3693767867737054 3.184937003470518 -4.219085418384424 2.9822597548522976 6.821773578455354 38.00077307750777 -4.841831346933248 55.23208060697296 53.440651749592874 -5.73721329781436 -3.6320406867727213 14.154292492589484 42.362778909652505 -28.641724199740523 1.5119986257731004 2.34194999935702 13.592483167816514 -1.7210696870989253 0.39761971926866935 26.016674645321668 -0.6263359973034558 0.05032151856097161 9.18599017893669 -11.696535577492854 -9.925414088050633 9.233472558695171 -0.43792867005546454 0.024515804175279834 6.409035480152928 -0.434394981708514 0.02412689190157931 6.357174379064261 -3.6151526900771427 0.25882756385226074 2.5649427802474833 -1.9028316949667934 0.4922862851436499 29.007764531665895 -0.3672975983991571 0.01723447018374768 5.372199591722982 -7.494496963573425 1.1051689119839558 4.3193744314468825 -0.8377393363901146 0.09048232830876443 12.329288724863822 -0.6889229853862073 0.06096021023570883 10.113326872279004 -2.4284014499104623 -7.807950642366199 -17.11761799094804 -24.81765577143259 4.125821205882242 33.20738559622044 -37.597050296786215 -1.561036806829524 -8.504457398958637 -47.84446870887663 -83.74636525361622 58.99067477235761 41.4374713106357 80.10059694218953 41.16506061750734 -7.134726351654209 4.218275900975419 -6.706690360105446 0.000007547683971066565 -0.10311152621509641 -5.280096177410431e-7 61.82202024805597 -82.68712888129558 -69.51212830367724 -38.79455178327762 80.22647662647607 -40.17065926166142 0.06827140116356042 5.409398288109316 7.085456430764877 0.000008273348752521028 -0.19163724268749507 3.225628491750529e-7
-0.0021674688905477524 -4.11296335987981 0.26942330598831177 0.17360537153224348 0.13882881334628835 1.0899478262895688 -0.20703486219781608 9.667813551426228 -1.6897103642698272 0.3274381761914677 -0.48852500765261664 -0.7216684765301362 0 0 0 -1.3890741960870612 -1.4850709597071432 0.8943911126365172 -4.610510680496722 -11.31792279553885 -4.424250480905016 0 0 0 0 0 0 -13.309820048695363 1.8287013041649245 -2.2542581133208155 -26.906046272570645 0.5608156706305848 -53.07947319419961 -57.27652590407917 -5.9805838177471875 4.072766269693121 -0.27212904172162217 29.705100964361048 44.4043311460224 2.592078114871351 -0.5491865145268005 -27.054060141882747 1.867874383288749 0.3524616486728168 -21.371962507061244 0.8752924784341136 0.07529812149853514 -9.833795863477794 10.424190176640806 2.8982518082669486 -13.515682636410055 1.1945541720693396 0.14114853660735735 -13.4785166681942 0.990403061961045 0.09658687804766097 -11.142707193384943 6.963571972703101 1.6796728925798432 -16.35211971398556 1.7159953352195487 0.29578484360659935 -19.560134840658826 1.4522513326694686 0.2100433149377613 -16.460575385124727 9.385408389599993 2.541579282667009 -14.082503806914248 1.3622146674463422 0.18433677170202303 -15.413963088018626 1.5399996110087233 0.2368139782709517 -17.48583653013778 0.6994764125268028 7.877636045643693 20.62581088240757 20.653546391112013 3.2100825842914227 -23.478763447899123 29.55125162284797 -1.3693767867737054 3.184937003470518 -4.2444109287050455 2.983625722484519 6.808645519180917 37.989556257053486 -4.878696661710295 55.267307119754534 53.43261087407409 -5.736677003157281 -3.6311435557052296 14.184828589053073 42.4142047941384 -28.5944114526934 1.5119986257731004 2.34194999935702 13.592483167816514 -1.7210696870989253 0.39761971926866935 26.016674645321668 -0.6263359973034558 0.05032151856097161 9.18599017893669 -11.696535577492854 -9.925414088050633 9.233472558695171 -0.43792867005546454 0.024515804175279834 6.409035480152928 -0.434394981708514 0.02412689190157931 6.357174379064261 -3.6151526900771427 0.25882756385226074 2.5649427802474833 -1.9028316949667934 0.4922862851436499 29.007764531665895 -0.3672975983991571 0.01723447018374768 5.372199591722982 -7.494496963573425 1.1051689119839558 4.3193744314468825 -0.8377393363901146 0.09048232830876443 12.329288724863822 -0.6889229853862073 0.06096021023570883 10.113326872279004 -2.4284014499104623 -7.807950642366199 -17.11761799094804 -24.81765577143259 4.125821205882242 33.20738559622044 -37.597050296786215 -1.561036806829524 -8.504457398958637 -47.815779074497435 -83.74301156070236 58.96075902966022 41.441796372560454 80.09640639502643 41.16898684356204 -7.135207179622889 4.219869947303316 -6.718976763564693 0.000007547683971066565 -0.10311152621509641 -5.280096177410431e-7 61.8252380858393 -82.68219385659947 -69.51720012420468 -38.77402747285762 80.2279654625802 -40.15039003577493 0.06947627470932849 5.410581767501772 7.093671639894749 0.000008273348752521028 -0.19163724268749507 3.225628491750529e-7
-0.0021086016204208136 -4.11303774647649 0.26914089918136597 0.17164120073415787 0.135054962967532 1.0956509417530442 -0.21373517226284033 9.673394576375896 -1.667680180183531 0.3308715158559668 -0.48427994547633835 -0.7210945266078983 0 0 0 -1.383983368009637 -1.419775033746237 0.8999512441862505 -4.59573193522064 -11.154354939882216 -4.424674594696287 0 0 0 0 0 0 -13.26993004614957 1.8390436657921756 -2.191897585310521 -27.030648115355373 0.5286848480319178 -53.0952894450991 -57.1927401439306 -5.975597127986617 4.062986101621615 -0.29414115383571965 29.61080998774029 44.45251039518074 2.594132383337723 -0.5486751340042091 -27.07381860821283 1.8706510562001544 0.35356058293522585 -21.405336679997344 0.8782232351329555 0.07580250872887137 -9.867194106818133 10.423687815306504 2.8952614870779407 -13.490823461949804 1.2024621957317116 0.14304069158936253 -13.569510661107763 0.9932995190884772 0.09717184723369734 -11.175498904560339 6.9626168942066835 1.6783904008121848 -16.33616634705291 1.720010211980315 0.2972176817335705 -19.60809662103521 1.4563822937508402 0.21126309891811482 -16.50878043859174 9.38375387228071 2.5371872134557765 -14.046821060151009 1.365228584965646 0.18516356239516205 -15.448949602471199 1.5430066625817018 0.23776068796128977 -17.521150877382023 0.6994764125268028 7.877636045643693 20.62581088240757 20.653546391112013 3.2100825842914227 -23.478763447899123 29.55125162284797 -1.3693767867737054 3.184937003470518 -4.283283690720563 2.983298497099945 6.757875516610954 37.98655131470211 -4.936172090161481 55.334968206195704 53.41111416676726 -5.735218284241163 -3.6287161701558137 14.226620660021638 42.47039977402959 -28.553560256648982 1.5119986257731004 2.34194999935702 13.592483167816514 -1.7210696870989253 0.39761971926866935 26.016674645321668 -0.6263359973034558 0.05032151856097161 9.18599017893669 -11.696535577492854 -9.925414088050633 9.233472558695171 -0.43792867005546454 0.024515804175279834 6.409035480152928 -0.434394981708514 0.02412689190157931 6.357174379064261 -3.6151526900771427 0.25882756385226074 2.5649427802474833 -1.9028316949667934 0.4922862851436499 29.007764531665895 -0.3672975983991571 0.01723447018374768 5.372199591722982 -7.494496963573425 1.1051689119839558 4.3193744314468825 -0.8377393363901146 0.09048232830876443 12.329288724863822 -0.6889229853862073 0.06096021023570883 10.113326872279004 -2.4284014499104623 -7.807950642366199 -17.11761799094804 -24.81765577143259 4.125821205882242 33.20738559622044 -37.597050296786215 -1.561036806829524 -8.504457398958637 -47.79228705801988 -83.74028604539966 58.934790507334085 41.46151644185587 80.09428200150893 41.18840616452304 -7.134911568677243 4.220613037687118 -6.711099326644678 0.000007547683971066565 -0.10311152621509641 -5.280096177410431e-7 61.83809856726938 -82.67857515456824 -69.52972026776138 -38.77725497637557 80.23354053357349 -40.154122782006134 0.07012840308747571 5.408520113592502 7.085150564537967 0.000008273348752521028 -0.19163724268749507 3.225628491750529e-7
